<svg xmlns="http://www.w3.org/2000/svg" viewBox="0 0 24 24" fill="currentColor">
  <path d="M12 .5C5.65.5.5 5.65.5 12c0 5.1 3.292 9.426 7.865 10.957.575.106.785-.25.785-.555 0-.273-.01-1.18-.015-2.14-3.2.695-3.875-1.543-3.875-1.543-.523-1.327-1.278-1.68-1.278-1.68-1.045-.715.08-.7.08-.7 1.156.08 1.765 1.187 1.765 1.187 1.028 1.762 2.698 1.253 3.355.958.104-.745.402-1.253.732-1.54-2.553-.29-5.238-1.276-5.238-5.683 0-1.256.45-2.283 1.186-3.088-.119-.29-.514-1.456.112-3.034 0 0 .967-.31 3.17 1.18a10.93 10.93 0 012.886-.388c.98.004 1.967.132 2.887.388 2.2-1.49 3.165-1.18 3.165-1.18.628 1.578.233 2.744.114 3.034.74.805 1.184 1.832 1.184 3.088 0 4.418-2.69 5.39-5.252 5.676.414.356.783 1.055.783 2.127 0 1.536-.014 2.775-.014 3.154 0 .308.207.667.79.553C20.21 21.422 23.5 17.097 23.5 12 23.5 5.65 18.35.5 12 .5z"/>
</svg>