<svg xmlns="http://www.w3.org/2000/svg" viewBox="0 0 24 24" fill="currentColor">
  <path d="M20.52 3.48A11.88 11.88 0 0012.04 0C5.4 0 .02 5.38.02 12c0 2.11.55 4.17 1.6 6L0 24l6.24-1.63A11.9 11.9 0 0012.04 24c6.63 0 12-5.38 12-12 0-3.2-1.25-6.2-3.52-8.52zM12.04 21.8c-1.8 0-3.55-.48-5.08-1.38l-.36-.21-3.7.97.99-3.6-.23-.37A9.72 9.72 0 012.3 12c0-5.38 4.36-9.74 9.74-9.74 2.6 0 5.04 1.01 6.88 2.86A9.67 9.67 0 0121.78 12c0 5.38-4.36 9.8-9.74 9.8zm5.33-7.35c-.29-.15-1.7-.84-1.96-.94-.26-.1-.45-.15-.64.15-.19.29-.74.94-.9 1.13-.16.19-.33.21-.62.07-.29-.15-1.23-.45-2.34-1.44-.86-.76-1.44-1.7-1.6-1.98-.17-.29-.02-.44.13-.59.13-.13.29-.33.43-.5.14-.17.19-.29.29-.48.1-.19.05-.36-.02-.5-.07-.15-.64-1.54-.88-2.11-.23-.56-.46-.48-.64-.49l-.55-.01c-.19 0-.5.07-.76.36-.26.29-1 1-.98 2.44.02 1.44 1.04 2.83 1.18 3.02.14.19 2.04 3.11 4.94 4.36.69.3 1.23.48 1.65.61.69.22 1.32.19 1.82.11.55-.08 1.7-.7 1.94-1.37.24-.67.24-1.25.17-1.37-.07-.12-.26-.19-.55-.34z"/>
</svg>