<svg xmlns="http://www.w3.org/2000/svg" viewBox="0 0 24 24" fill="none">
    <path
        d="M7.5 19.2L3 20.5L4.3 16.2C3.5 14.9 3 13.5 3 12C3 7 7 3 12 3C17 3 21 7 21 12C21 17 17 21 12 21C10.4 21 8.9 20.6 7.5 19.2Z"
        stroke="currentColor"
        stroke-width="2"
        stroke-linecap="round"
        stroke-linejoin="round"
    />
    <path
        d="M8.8 8.7C8.9 8.4 9.1 8.2 9.4 8.2H10.1C10.3 8.2 10.5 8.3 10.6 8.5L11.2 10C11.3 10.2 11.3 10.5 11.1 10.7L10.6 11.3C11.2 12.5 12.1 13.3 13.3 13.9L13.9 13.4C14.1 13.2 14.4 13.2 14.6 13.3L16.1 13.9C16.3 14 16.4 14.2 16.4 14.4V15.1C16.4 15.4 16.2 15.7 15.9 15.8C15.2 16.1 14.4 16.1 13.6 15.8C11.2 14.9 9.3 13 8.4 10.6C8.1 9.8 8.1 9.3 8.8 8.7Z"
        stroke="currentColor"
        stroke-width="2"
        stroke-linecap="round"
        stroke-linejoin="round"
    />
</svg>